<svg xmlns="http://www.w3.org/2000/svg">
<symbol id="Icon--arrow-down-solid" viewBox="0 0 32 32"><title>arrow-down-solid icon</title><path d="M15 4v20.063l-6.781-6.781-1.438 1.438 8.5 8.5.719.688.719-.688 8.5-8.5-1.438-1.438L17 24.063V4z"/></symbol>
<symbol id="Icon--arrow-left-solid" viewBox="0 0 32 32"><title>arrow-left-solid icon</title><path d="M13.281 6.781l-8.5 8.5-.688.719.688.719 8.5 8.5 1.438-1.438L7.938 17h20.063v-2H7.938l6.781-6.781z"/></symbol>
<symbol id="Icon--arrow-right-solid" viewBox="0 0 32 32"><title>arrow-right-solid icon</title><path d="M18.719 6.781l-1.438 1.438L24.062 15H3.999v2h20.063l-6.781 6.781 1.438 1.438 8.5-8.5.688-.719-.688-.719z"/></symbol>
<symbol id="Icon--arrow-up-solid" viewBox="0 0 32 32"><title>arrow-up-solid icon</title><path d="M16 4.094l-.719.688-8.5 8.5 1.438 1.438L15 7.939v20.063h2V7.939l6.781 6.781 1.438-1.438-8.5-8.5z"/></symbol>
<symbol id="Icon--download-solid" viewBox="0 0 32 32"><title>download-solid icon</title><path d="M15 4v16.563l-5.281-5.281-1.438 1.438 7 7 .719.688.719-.688 7-7-1.438-1.438L17 20.563V4zM7 26v2h18v-2z"/></symbol>
<symbol id="Icon--long-arrow-alt-down-solid" viewBox="0 0 32 32"><title>long-arrow-alt-down-solid icon</title><path d="M15 4v20.063l-4.281-4.281-1.438 1.406L16 27.907l6.719-6.719-1.438-1.406L17 24.063V4z"/></symbol>
<symbol id="Icon--long-arrow-alt-left-solid" viewBox="0 0 32 32"><title>long-arrow-alt-left-solid icon</title><path d="M10.813 9.281L4.094 16l6.719 6.719 1.406-1.438L7.938 17h20.063v-2H7.938l4.281-4.281z"/></symbol>
<symbol id="Icon--long-arrow-alt-right-solid" viewBox="0 0 32 32"><title>long-arrow-alt-right-solid icon</title><path d="M21.188 9.281l-1.406 1.438L24.063 15H4v2h20.063l-4.281 4.281 1.406 1.438L27.907 16z"/></symbol>
<symbol id="Icon--long-arrow-alt-up-solid" viewBox="0 0 32 32"><title>long-arrow-alt-up-solid icon</title><path d="M16 4.094l-6.719 6.719 1.438 1.406L15 7.938v20.063h2V7.938l4.281 4.281 1.438-1.406z"/></symbol>
<symbol id="Icon--search-solid" viewBox="0 0 32 32"><title>search-solid icon</title><path d="M19 3C13.488 3 9 7.488 9 13c0 2.395.84 4.59 2.25 6.313l-7.969 7.969 1.438 1.438 7.969-7.969a9.924 9.924 0 006.313 2.25c5.512 0 10-4.488 10-10s-4.488-10-10-10zm0 2c4.43 0 8 3.57 8 8s-3.57 8-8 8-8-3.57-8-8 3.57-8 8-8z"/></symbol>
</svg>