<svg aria-hidden="true" style="position: absolute; width: 0; height: 0; overflow: hidden;" version="1.1" xmlns="http://www.w3.org/2000/svg" xmlns:xlink="http://www.w3.org/1999/xlink">
<defs>
<symbol id="Icon--search" viewBox="0 0 32 32">
<title>search</title>
<path d="M19 3c-5.512 0-10 4.488-10 10 0 2.395 0.84 4.59 2.25 6.313l-7.969 7.969 1.438 1.438 7.969-7.969c1.723 1.41 3.918 2.25 6.313 2.25 5.512 0 10-4.488 10-10s-4.488-10-10-10zM19 5c4.43 0 8 3.57 8 8s-3.57 8-8 8c-4.43 0-8-3.57-8-8s3.57-8 8-8z"></path>
</symbol>
<symbol id="Icon--download" viewBox="0 0 32 32">
<title>download</title>
<path d="M15 4v16.563l-5.281-5.281-1.438 1.438 7 7 0.719 0.688 0.719-0.688 7-7-1.438-1.438-5.281 5.281v-16.563zM7 26v2h18v-2z"></path>
</symbol>
<symbol id="Icon--arrowLongUp" viewBox="0 0 32 32">
<title>arrowLongUp</title>
<path d="M16 4.094l-6.719 6.719 1.438 1.406 4.281-4.281v20.063h2v-20.063l4.281 4.281 1.438-1.406z"></path>
</symbol>
<symbol id="Icon--arrowLongRight" viewBox="0 0 32 32">
<title>arrowLongRight</title>
<path d="M21.188 9.281l-1.406 1.438 4.281 4.281h-20.063v2h20.063l-4.281 4.281 1.406 1.438 6.719-6.719z"></path>
</symbol>
<symbol id="Icon--arrowLongLeft" viewBox="0 0 32 32">
<title>arrowLongLeft</title>
<path d="M10.813 9.281l-6.719 6.719 6.719 6.719 1.406-1.438-4.281-4.281h20.063v-2h-20.063l4.281-4.281z"></path>
</symbol>
<symbol id="Icon--arrowLongDown" viewBox="0 0 32 32">
<title>arrowLongDown</title>
<path d="M15 4v20.063l-4.281-4.281-1.438 1.406 6.719 6.719 6.719-6.719-1.438-1.406-4.281 4.281v-20.063z"></path>
</symbol>
<symbol id="Icon--arrowUp" viewBox="0 0 32 32">
<title>arrowUp</title>
<path d="M16 4.094l-0.719 0.688-8.5 8.5 1.438 1.438 6.781-6.781v20.063h2v-20.063l6.781 6.781 1.438-1.438-8.5-8.5z"></path>
</symbol>
<symbol id="Icon--arrowRight" viewBox="0 0 32 32">
<title>arrowRight</title>
<path d="M18.719 6.781l-1.438 1.438 6.781 6.781h-20.063v2h20.063l-6.781 6.781 1.438 1.438 8.5-8.5 0.688-0.719-0.688-0.719z"></path>
</symbol>
<symbol id="Icon--arrowDown" viewBox="0 0 32 32">
<title>arrowDown</title>
<path d="M15 4v20.063l-6.781-6.781-1.438 1.438 8.5 8.5 0.719 0.688 0.719-0.688 8.5-8.5-1.438-1.438-6.781 6.781v-20.063z"></path>
</symbol>
<symbol id="Icon--arrowLeft" viewBox="0 0 32 32">
<title>arrowLeft</title>
<path d="M13.281 6.781l-8.5 8.5-0.688 0.719 0.688 0.719 8.5 8.5 1.438-1.438-6.781-6.781h20.063v-2h-20.063l6.781-6.781z"></path>
</symbol>
</defs>
</svg>
